<svg xmlns="http://www.w3.org/2000/svg" width="635" height="357" viewBox="0 0 635 357"><g transform="translate(-277 -296)"><rect width="635" height="357" transform="translate(277 296)" fill="#ccc"/><g transform="translate(580.107 461.406)"><path d="M2,5a.9.9,0,0,0,.9.9H22.69a.9.9,0,0,0,0-1.8H2.9A.9.9,0,0,0,2,5ZM5.6,1.4a.9.9,0,0,0,.9.9H19.091a.9.9,0,1,0,0-1.8H6.5a.9.9,0,0,0-.9.9Zm4.974,10.032a.9.9,0,0,0-1.376.763v9a.9.9,0,0,0,1.376.763l7.2-4.5a.9.9,0,0,0,0-1.526l-7.2-4.5Z" transform="translate(1.598)"/><path d="M2.7,22.491a2.7,2.7,0,0,1-2.7-2.7V7.2A2.7,2.7,0,0,1,2.7,4.5H26.087a2.7,2.7,0,0,1,2.7,2.7V19.792a2.7,2.7,0,0,1-2.7,2.7Zm23.388-1.8a.9.9,0,0,0,.9-.9V7.2a.9.9,0,0,0-.9-.9H2.7a.9.9,0,0,0-.9.9V19.792a.9.9,0,0,0,.9.9Z" transform="translate(0 3.196)"/></g><g transform="translate(584.869 535.3)"><g transform="translate(0)"><path d="M162.3,308.6a.811.811,0,0,1-1.363,0c-.62-.744-.372-1.611-.372-2.6a18.916,18.916,0,0,0-.372-3.718c-.248-.992,1.24-1.363,1.611-.5a13.572,13.572,0,0,1,.744,3.223C162.676,306.245,163.048,307.608,162.3,308.6Z" transform="translate(-152.448 -301.296)"/><path d="M161.369,255.767a12.985,12.985,0,0,0-.5,2.107,3.371,3.371,0,0,1,0,1.116,3.245,3.245,0,0,1-.372.992.811.811,0,0,1-1.363,0,3.111,3.111,0,0,1-.124-2.355,9.866,9.866,0,0,1,.868-2.479A.82.82,0,0,1,161.369,255.767Z" transform="translate(-151.388 -243.257)"/><path d="M160.639,205.485a.826.826,0,0,1-1.24,0c-.5-.62-.372-1.116-.372-1.859s.124-1.364.124-2.107a.744.744,0,1,1,1.487,0c0,.62.124,1.24.124,1.86C161.011,204.122,161.259,204.742,160.639,205.485Z" transform="translate(-151.526 -177.729)"/><path d="M158.09,152.526c-.5,1.363-.248,2.727-.62,4.09a.861.861,0,0,1-1.611,0,5.583,5.583,0,0,1,.868-4.587C157.1,151.286,158.338,151.782,158.09,152.526Z" transform="translate(-148.853 -119.191)"/><path d="M157.353,101.37a.754.754,0,0,1-.992,0c-.744-.744-.5-1.735-.5-2.727a20.084,20.084,0,0,1,.124-2.727.775.775,0,0,1,1.487,0,16.611,16.611,0,0,1,.124,2.479C157.849,99.387,158.1,100.5,157.353,101.37Z" transform="translate(-148.984 -52.169)"/><path d="M153.088,48.7a1.03,1.03,0,0,1-.992-1.363,28.519,28.519,0,0,0,.372-3.223.732.732,0,0,1,1.363,0,13.512,13.512,0,0,0,.372,3.223A1.171,1.171,0,0,1,153.088,48.7Z" transform="translate(-145.958 11.165)"/><path d="M140.95,3.426c-2.851,3.1-5.95,6.2-9.793,8.181a1.147,1.147,0,0,1-1.487-.248c-2.6-3.1-4.586-6.57-7.313-9.544-.992-.992.62-2.479,1.487-1.487,2.479,2.727,4.338,5.95,6.817,8.677,3.223-1.983,5.454-4.834,8.305-7.437A1.36,1.36,0,0,1,140.95,3.426Z" transform="translate(-122.045 56.93)"/></g></g></g></svg>